<svg
  class="ml-2"
  width="13"
  height="14"
  viewBox="0 0 13 14"
  fill="none"
  xmlns="http://www.w3.org/2000/svg"
>
  <path
    fill-rule="evenodd"
    clip-rule="evenodd"
    d="M6.49996 2.12499C3.80757 2.12499 1.62496 4.3076 1.62496 6.99999C1.62496 9.69238 3.80757 11.875 6.49996 11.875C9.19235 11.875 11.375 9.69238 11.375 6.99999C11.375 4.3076 9.19235 2.12499 6.49996 2.12499ZM0.541626 6.99999C0.541626 3.70929 3.20926 1.04166 6.49996 1.04166C9.79066 1.04166 12.4583 3.70929 12.4583 6.99999C12.4583 10.2907 9.79066 12.9583 6.49996 12.9583C3.20926 12.9583 0.541626 10.2907 0.541626 6.99999ZM6.63977 4.8465C6.38762 4.80324 6.12829 4.85063 5.90772 4.98026C5.68715 5.10989 5.51958 5.3134 5.43468 5.55474C5.33541 5.83694 5.02616 5.98523 4.74396 5.88596C4.46176 5.78669 4.31346 5.47744 4.41274 5.19524C4.58253 4.71256 4.91768 4.30554 5.35881 4.04628C5.79995 3.78702 6.3186 3.69225 6.82292 3.77876C7.32723 3.86526 7.78466 4.12745 8.11418 4.5189C8.44363 4.91027 8.62398 5.40558 8.62329 5.91715C8.62305 6.74609 8.00847 7.29351 7.56959 7.5861C7.33362 7.74341 7.10151 7.85908 6.93052 7.93507C6.84426 7.97341 6.77162 8.00251 6.71928 8.02245C6.69306 8.03243 6.67181 8.04017 6.65634 8.04567L6.63753 8.05226L6.63153 8.05431L6.62942 8.05502L6.62859 8.0553C6.62843 8.05535 6.62792 8.05553 6.45663 7.54166L6.62792 8.05553C6.34411 8.15013 6.03736 7.99675 5.94276 7.71295C5.84819 7.42924 6.00143 7.12259 6.28505 7.02788L6.29341 7.02494C6.30174 7.02198 6.3154 7.01702 6.33362 7.01008C6.37014 6.99617 6.42446 6.97448 6.49054 6.94511C6.62424 6.88569 6.79838 6.79823 6.96866 6.68471C7.3422 6.43569 7.53996 6.17077 7.53996 5.91666L7.53996 5.91585C7.54034 5.66001 7.45016 5.41229 7.2854 5.21657C7.12064 5.02084 6.89193 4.88975 6.63977 4.8465ZM5.95829 9.70832C5.95829 9.40917 6.2008 9.16666 6.49996 9.16666H6.50538C6.80453 9.16666 7.04704 9.40917 7.04704 9.70832C7.04704 10.0075 6.80453 10.25 6.50538 10.25H6.49996C6.2008 10.25 5.95829 10.0075 5.95829 9.70832Z"
    fill="#035E61"
  />
</svg>